<?xml version="1.0" standalone="no"?><!DOCTYPE svg PUBLIC "-//W3C//DTD SVG 1.1//EN" "http://www.w3.org/Graphics/SVG/1.1/DTD/svg11.dtd"><svg t="1578879497759" class="icon" viewBox="0 0 1024 1024" version="1.1" xmlns="http://www.w3.org/2000/svg" p-id="9206" xmlns:xlink="http://www.w3.org/1999/xlink" width="200" height="200"><defs><style type="text/css"></style></defs><path d="M513.1 552.5L475.3 734c-2.4 11.5 5 22.8 16.5 25.2 1.4 0.3 2.9 0.4 4.4 0.4h31c11.8 0 21.3-9.6 21.3-21.3 0-1.4-0.1-2.7-0.4-4l-35-181.8z m78.1 185.8c0 35.3-28.7 64-64 64h-31c-4.4 0-8.8-0.5-13.1-1.3-34.6-7.2-56.8-41.1-49.6-75.7l55.2-264.8c2.1-10.1 10.1-18 20.2-19.9 13.9-2.7 27.3 6.4 30 20.3L590 726.2c0.8 4 1.2 8.1 1.2 12.1z m-55.9-402.2h-42.7v-133h42.7v133zM217.9 582.6v42.7H87.3v-42.7h130.6z m716.1 0v42.7H798.9v-42.7H934z m-58.6 254l-11 18.3-36.5-21.9 11-18.3C876 752.6 896 681 896 606.2c0-219.3-172.1-396.9-384-396.9S128 386.9 128 606.2c0 75.6 20.5 148.1 58.5 210.7l11.1 18.2-36.5 22.1L150 839c-42-69.2-64.7-149.3-64.7-232.8 0-242.6 190.9-439.6 426.7-439.6s426.7 196.9 426.7 439.6c0 82.5-22.1 161.7-63.3 230.4z" p-id="9207"></path></svg>