<?xml version="1.0" standalone="no"?><!DOCTYPE svg PUBLIC "-//W3C//DTD SVG 1.1//EN" "http://www.w3.org/Graphics/SVG/1.1/DTD/svg11.dtd"><svg t="1578899627163" class="icon" viewBox="0 0 1024 1024" version="1.1" xmlns="http://www.w3.org/2000/svg" p-id="15655" xmlns:xlink="http://www.w3.org/1999/xlink" width="200" height="200"><defs><style type="text/css"></style></defs><path d="M511.52020531 991.58874781C247.90746781 991.58874781 32.20562656 775.88690563 32.20562656 512.27416812 32.20562656 323.50935312 145.985435 149.75524812 319.8080825 71.89147531c14.9421675-6.03170063 32.90018531 0 38.93188594 14.9421675 6.03170063 15.01071 0 32.96872781-14.9421675 39.00042844C190.94902156 194.71883469 92.11138062 344.48322125 92.11138062 512.27416812c0 230.64400969 188.764815 419.40882469 419.47736719 419.40882469 230.64400969 0 419.34028313-188.764815 419.34028219-419.47736625a416.32443281 416.32443281 0 0 0-251.61787781-383.4242475c-15.01071-5.96315906-20.97386813-23.98971844-15.01070907-38.93188594 6.03170063-14.9421675 23.98971844-20.97386813 38.93188594-14.9421675a475.47622406 475.47622406 0 0 1 287.60245594 437.29830094c0 263.68127906-215.70184219 479.38312125-479.31457969 479.38312125z m0-479.31457968c-17.95801781 0-29.9528775-11.99485969-29.95287656-29.9528775V62.84392438c0-17.95801781 11.99485969-29.884335 29.95287656-29.88433594s29.9528775 11.92631719 29.9528775 29.9528775V482.32129062c0 17.95801781-11.99485969 29.9528775-29.9528775 29.95287751z" fill="#666666" p-id="15656"></path></svg>